<svg width="518" height="120" viewBox="0 0 518 120" fill="none" xmlns="http://www.w3.org/2000/svg">
<rect width="518" height="120" fill="white"/>
<path d="M173.224 82V37.2H192.68C195.496 37.2 197.949 37.6907 200.04 38.672C202.131 39.6533 203.752 41.04 204.904 42.832C206.056 44.624 206.632 46.736 206.632 49.168V49.936C206.632 52.624 205.992 54.8 204.712 56.464C203.432 58.128 201.853 59.344 199.976 60.112V61.264C201.683 61.3493 203.005 61.9467 203.944 63.056C204.883 64.1227 205.352 65.552 205.352 67.344V82H196.904V68.56C196.904 67.536 196.627 66.704 196.072 66.064C195.56 65.424 194.685 65.104 193.448 65.104H181.672V82H173.224ZM181.672 57.424H191.784C193.789 57.424 195.347 56.8907 196.456 55.824C197.608 54.7147 198.184 53.264 198.184 51.472V50.832C198.184 49.04 197.629 47.6107 196.52 46.544C195.411 45.4347 193.832 44.88 191.784 44.88H181.672V57.424ZM223.774 82.896C221.512 82.896 219.486 82.512 217.694 81.744C215.902 80.9333 214.472 79.7813 213.406 78.288C212.382 76.752 211.87 74.896 211.87 72.72C211.87 70.544 212.382 68.7307 213.406 67.28C214.472 65.7867 215.923 64.6773 217.758 63.952C219.635 63.184 221.768 62.8 224.158 62.8H232.862V61.008C232.862 59.5147 232.392 58.2987 231.454 57.36C230.515 56.3787 229.022 55.888 226.974 55.888C224.968 55.888 223.475 56.3573 222.494 57.296C221.512 58.192 220.872 59.3653 220.574 60.816L213.15 58.32C213.662 56.6987 214.472 55.2267 215.582 53.904C216.734 52.5387 218.248 51.4507 220.126 50.64C222.046 49.7867 224.371 49.36 227.102 49.36C231.283 49.36 234.59 50.4053 237.022 52.496C239.454 54.5867 240.67 57.616 240.67 61.584V73.424C240.67 74.704 241.267 75.344 242.462 75.344H245.022V82H239.646C238.067 82 236.766 81.616 235.742 80.848C234.718 80.08 234.206 79.056 234.206 77.776V77.712H232.99C232.819 78.224 232.435 78.9067 231.838 79.76C231.24 80.5707 230.302 81.296 229.022 81.936C227.742 82.576 225.992 82.896 223.774 82.896ZM225.182 76.368C227.443 76.368 229.278 75.7493 230.686 74.512C232.136 73.232 232.862 71.5467 232.862 69.456V68.816H224.734C223.24 68.816 222.067 69.136 221.214 69.776C220.36 70.416 219.934 71.312 219.934 72.464C219.934 73.616 220.382 74.5547 221.278 75.28C222.174 76.0053 223.475 76.368 225.182 76.368ZM250.918 82V37.2H258.982V82H250.918ZM267.918 82V37.2H275.982V82H267.918ZM288.374 94.8V87.76H305.654C306.848 87.76 307.446 87.12 307.446 85.84V77.84H306.294C305.952 78.5653 305.419 79.2907 304.694 80.016C303.968 80.7413 302.987 81.3387 301.75 81.808C300.512 82.2773 298.934 82.512 297.014 82.512C294.539 82.512 292.363 81.9573 290.486 80.848C288.651 79.696 287.222 78.1173 286.198 76.112C285.174 74.1067 284.661 71.8027 284.661 69.2V50.256H292.726V68.56C292.726 70.9493 293.302 72.7413 294.454 73.936C295.648 75.1307 297.334 75.728 299.51 75.728C301.984 75.728 303.904 74.9173 305.27 73.296C306.635 71.632 307.318 69.328 307.318 66.384V50.256H315.382V87.632C315.382 89.808 314.742 91.536 313.462 92.816C312.182 94.1387 310.475 94.8 308.342 94.8H288.374ZM339.651 82.896C336.195 82.896 333.144 82.2773 330.499 81.04C327.854 79.8027 325.784 78.032 324.291 75.728C322.798 73.424 322.051 70.6507 322.051 67.408V65.616H330.371V67.408C330.371 70.096 331.203 72.1227 332.867 73.488C334.531 74.8107 336.792 75.472 339.651 75.472C342.552 75.472 344.707 74.896 346.115 73.744C347.566 72.592 348.291 71.12 348.291 69.328C348.291 68.0907 347.928 67.088 347.203 66.32C346.52 65.552 345.496 64.9333 344.131 64.464C342.808 63.952 341.187 63.4827 339.267 63.056L337.795 62.736C334.723 62.0533 332.078 61.2 329.859 60.176C327.683 59.1093 325.998 57.7227 324.803 56.016C323.651 54.3093 323.075 52.0907 323.075 49.36C323.075 46.6293 323.715 44.304 324.995 42.384C326.318 40.4213 328.152 38.928 330.499 37.904C332.888 36.8373 335.683 36.304 338.883 36.304C342.083 36.304 344.92 36.8587 347.395 37.968C349.912 39.0347 351.875 40.656 353.283 42.832C354.734 44.9653 355.459 47.6533 355.459 50.896V52.816H347.139V50.896C347.139 49.1893 346.798 47.824 346.115 46.8C345.475 45.7333 344.536 44.9653 343.299 44.496C342.062 43.984 340.59 43.728 338.883 43.728C336.323 43.728 334.424 44.2187 333.187 45.2C331.992 46.1387 331.395 47.44 331.395 49.104C331.395 50.2133 331.672 51.152 332.227 51.92C332.824 52.688 333.699 53.328 334.851 53.84C336.003 54.352 337.475 54.8 339.267 55.184L340.739 55.504C343.939 56.1867 346.712 57.0613 349.059 58.128C351.448 59.1947 353.304 60.6027 354.627 62.352C355.95 64.1013 356.611 66.3413 356.611 69.072C356.611 71.8027 355.907 74.2133 354.499 76.304C353.134 78.352 351.171 79.9733 348.611 81.168C346.094 82.32 343.107 82.896 339.651 82.896ZM366.624 94.8V87.76H383.904C385.098 87.76 385.696 87.12 385.696 85.84V77.84H384.544C384.202 78.5653 383.669 79.2907 382.944 80.016C382.218 80.7413 381.237 81.3387 380 81.808C378.762 82.2773 377.184 82.512 375.264 82.512C372.789 82.512 370.613 81.9573 368.736 80.848C366.901 79.696 365.472 78.1173 364.448 76.112C363.424 74.1067 362.911 71.8027 362.911 69.2V50.256H370.976V68.56C370.976 70.9493 371.552 72.7413 372.704 73.936C373.898 75.1307 375.584 75.728 377.76 75.728C380.234 75.728 382.154 74.9173 383.52 73.296C384.885 71.632 385.568 69.328 385.568 66.384V50.256H393.632V87.632C393.632 89.808 392.992 91.536 391.712 92.816C390.432 94.1387 388.725 94.8 386.592 94.8H366.624ZM402.605 82V50.256H410.541V54.416H411.693C412.205 53.3067 413.165 52.2613 414.573 51.28C415.981 50.256 418.114 49.744 420.973 49.744C423.448 49.744 425.602 50.32 427.437 51.472C429.314 52.5813 430.765 54.1387 431.789 56.144C432.813 58.1067 433.325 60.4107 433.325 63.056V82H425.261V63.696C425.261 61.3067 424.664 59.5147 423.469 58.32C422.317 57.1253 420.653 56.528 418.477 56.528C416.002 56.528 414.082 57.36 412.717 59.024C411.352 60.6453 410.669 62.928 410.669 65.872V82H402.605ZM456.955 82.896C453.883 82.896 451.088 82.256 448.571 80.976C446.096 79.696 444.133 77.84 442.683 75.408C441.232 72.976 440.507 70.032 440.507 66.576V65.68C440.507 62.224 441.232 59.28 442.683 56.848C444.133 54.416 446.096 52.56 448.571 51.28C451.088 50 453.883 49.36 456.955 49.36C459.984 49.36 462.587 49.8933 464.763 50.96C466.939 52.0267 468.688 53.4987 470.011 55.376C471.376 57.2107 472.272 59.3013 472.699 61.648L464.891 63.312C464.72 62.032 464.336 60.88 463.739 59.856C463.141 58.832 462.288 58.0213 461.179 57.424C460.112 56.8267 458.768 56.528 457.147 56.528C455.525 56.528 454.053 56.8907 452.731 57.616C451.451 58.2987 450.427 59.344 449.659 60.752C448.933 62.1173 448.571 63.8027 448.571 65.808V66.448C448.571 68.4533 448.933 70.16 449.659 71.568C450.427 72.9333 451.451 73.9787 452.731 74.704C454.053 75.3867 455.525 75.728 457.147 75.728C459.579 75.728 461.413 75.1093 462.651 73.872C463.931 72.592 464.741 70.928 465.083 68.88L472.891 70.736C472.336 72.9973 471.376 75.0667 470.011 76.944C468.688 78.7787 466.939 80.2293 464.763 81.296C462.587 82.3627 459.984 82.896 456.955 82.896Z" fill="black"/>
<rect x="41" y="12" width="96" height="96" rx="8" fill="black"/>
<g clip-path="url(#clip0_31_15)">
<path d="M68.75 24C69.3467 24 69.919 24.2371 70.341 24.659C70.7629 25.081 71 25.6533 71 26.25V28.5H107V26.25C107 25.6533 107.237 25.081 107.659 24.659C108.081 24.2371 108.653 24 109.25 24C109.847 24 110.419 24.2371 110.841 24.659C111.263 25.081 111.5 25.6533 111.5 26.25V28.5H116C118.387 28.5 120.676 29.4482 122.364 31.136C124.052 32.8239 125 35.1131 125 37.5V87C125 89.3869 124.052 91.6761 122.364 93.364C120.676 95.0518 118.387 96 116 96H62C59.6131 96 57.3239 95.0518 55.636 93.364C53.9482 91.6761 53 89.3869 53 87V37.5C53 35.1131 53.9482 32.8239 55.636 31.136C57.3239 29.4482 59.6131 28.5 62 28.5H66.5V26.25C66.5 25.6533 66.7371 25.081 67.159 24.659C67.581 24.2371 68.1533 24 68.75 24ZM62 33C60.8065 33 59.6619 33.4741 58.818 34.318C57.9741 35.1619 57.5 36.3065 57.5 37.5V87C57.5 88.1935 57.9741 89.3381 58.818 90.182C59.6619 91.0259 60.8065 91.5 62 91.5H116C117.193 91.5 118.338 91.0259 119.182 90.182C120.026 89.3381 120.5 88.1935 120.5 87V37.5C120.5 36.3065 120.026 35.1619 119.182 34.318C118.338 33.4741 117.193 33 116 33H62Z" fill="white"/>
<path d="M64.25 42C64.25 41.4033 64.4871 40.831 64.909 40.409C65.331 39.9871 65.9033 39.75 66.5 39.75H111.5C112.097 39.75 112.669 39.9871 113.091 40.409C113.513 40.831 113.75 41.4033 113.75 42V46.5C113.75 47.0967 113.513 47.669 113.091 48.091C112.669 48.5129 112.097 48.75 111.5 48.75H66.5C65.9033 48.75 65.331 48.5129 64.909 48.091C64.4871 47.669 64.25 47.0967 64.25 46.5V42ZM102.5 57.75C102.5 57.1533 102.737 56.581 103.159 56.159C103.581 55.7371 104.153 55.5 104.75 55.5H109.25C109.847 55.5 110.419 55.7371 110.841 56.159C111.263 56.581 111.5 57.1533 111.5 57.75V62.25C111.5 62.8467 111.263 63.419 110.841 63.841C110.419 64.2629 109.847 64.5 109.25 64.5H104.75C104.153 64.5 103.581 64.2629 103.159 63.841C102.737 63.419 102.5 62.8467 102.5 62.25V57.75ZM89 57.75C89 57.1533 89.2371 56.581 89.659 56.159C90.081 55.7371 90.6533 55.5 91.25 55.5H95.75C96.3467 55.5 96.919 55.7371 97.341 56.159C97.7629 56.581 98 57.1533 98 57.75V62.25C98 62.8467 97.7629 63.419 97.341 63.841C96.919 64.2629 96.3467 64.5 95.75 64.5H91.25C90.6533 64.5 90.081 64.2629 89.659 63.841C89.2371 63.419 89 62.8467 89 62.25V57.75ZM66.5 71.25C66.5 70.6533 66.7371 70.081 67.159 69.659C67.581 69.2371 68.1533 69 68.75 69H73.25C73.8467 69 74.419 69.2371 74.841 69.659C75.2629 70.081 75.5 70.6533 75.5 71.25V75.75C75.5 76.3467 75.2629 76.919 74.841 77.341C74.419 77.7629 73.8467 78 73.25 78H68.75C68.1533 78 67.581 77.7629 67.159 77.341C66.7371 76.919 66.5 76.3467 66.5 75.75V71.25ZM80 71.25C80 70.6533 80.2371 70.081 80.659 69.659C81.081 69.2371 81.6533 69 82.25 69H86.75C87.3467 69 87.919 69.2371 88.341 69.659C88.7629 70.081 89 70.6533 89 71.25V75.75C89 76.3467 88.7629 76.919 88.341 77.341C87.919 77.7629 87.3467 78 86.75 78H82.25C81.6533 78 81.081 77.7629 80.659 77.341C80.2371 76.919 80 76.3467 80 75.75V71.25Z" fill="white"/>
</g>
<defs>
<clipPath id="clip0_31_15">
<rect width="72" height="72" fill="white" transform="translate(53 24)"/>
</clipPath>
</defs>
</svg>
