<svg width="25" height="25" viewBox="0 0 25 25" fill="none" xmlns="http://www.w3.org/2000/svg">
<rect width="25" height="25" rx="4" fill="#D8D8D8"/>
<g clip-path="url(#clip0_31_21)">
<path d="M8.5 5C8.63261 5 8.75979 5.05268 8.85355 5.14645C8.94732 5.24021 9 5.36739 9 5.5V6H17V5.5C17 5.36739 17.0527 5.24021 17.1464 5.14645C17.2402 5.05268 17.3674 5 17.5 5C17.6326 5 17.7598 5.05268 17.8536 5.14645C17.9473 5.24021 18 5.36739 18 5.5V6H19C19.5304 6 20.0391 6.21071 20.4142 6.58579C20.7893 6.96086 21 7.46957 21 8V19C21 19.5304 20.7893 20.0391 20.4142 20.4142C20.0391 20.7893 19.5304 21 19 21H7C6.46957 21 5.96086 20.7893 5.58579 20.4142C5.21071 20.0391 5 19.5304 5 19V8C5 7.46957 5.21071 6.96086 5.58579 6.58579C5.96086 6.21071 6.46957 6 7 6H8V5.5C8 5.36739 8.05268 5.24021 8.14645 5.14645C8.24021 5.05268 8.36739 5 8.5 5ZM7 7C6.73478 7 6.48043 7.10536 6.29289 7.29289C6.10536 7.48043 6 7.73478 6 8V19C6 19.2652 6.10536 19.5196 6.29289 19.7071C6.48043 19.8946 6.73478 20 7 20H19C19.2652 20 19.5196 19.8946 19.7071 19.7071C19.8946 19.5196 20 19.2652 20 19V8C20 7.73478 19.8946 7.48043 19.7071 7.29289C19.5196 7.10536 19.2652 7 19 7H7Z" fill="white"/>
<path d="M7.5 9C7.5 8.86739 7.55268 8.74021 7.64645 8.64645C7.74021 8.55268 7.86739 8.5 8 8.5H18C18.1326 8.5 18.2598 8.55268 18.3536 8.64645C18.4473 8.74021 18.5 8.86739 18.5 9V10C18.5 10.1326 18.4473 10.2598 18.3536 10.3536C18.2598 10.4473 18.1326 10.5 18 10.5H8C7.86739 10.5 7.74021 10.4473 7.64645 10.3536C7.55268 10.2598 7.5 10.1326 7.5 10V9ZM16 12.5C16 12.3674 16.0527 12.2402 16.1464 12.1464C16.2402 12.0527 16.3674 12 16.5 12H17.5C17.6326 12 17.7598 12.0527 17.8536 12.1464C17.9473 12.2402 18 12.3674 18 12.5V13.5C18 13.6326 17.9473 13.7598 17.8536 13.8536C17.7598 13.9473 17.6326 14 17.5 14H16.5C16.3674 14 16.2402 13.9473 16.1464 13.8536C16.0527 13.7598 16 13.6326 16 13.5V12.5ZM13 12.5C13 12.3674 13.0527 12.2402 13.1464 12.1464C13.2402 12.0527 13.3674 12 13.5 12H14.5C14.6326 12 14.7598 12.0527 14.8536 12.1464C14.9473 12.2402 15 12.3674 15 12.5V13.5C15 13.6326 14.9473 13.7598 14.8536 13.8536C14.7598 13.9473 14.6326 14 14.5 14H13.5C13.3674 14 13.2402 13.9473 13.1464 13.8536C13.0527 13.7598 13 13.6326 13 13.5V12.5ZM8 15.5C8 15.3674 8.05268 15.2402 8.14645 15.1464C8.24021 15.0527 8.36739 15 8.5 15H9.5C9.63261 15 9.75979 15.0527 9.85355 15.1464C9.94732 15.2402 10 15.3674 10 15.5V16.5C10 16.6326 9.94732 16.7598 9.85355 16.8536C9.75979 16.9473 9.63261 17 9.5 17H8.5C8.36739 17 8.24021 16.9473 8.14645 16.8536C8.05268 16.7598 8 16.6326 8 16.5V15.5ZM11 15.5C11 15.3674 11.0527 15.2402 11.1464 15.1464C11.2402 15.0527 11.3674 15 11.5 15H12.5C12.6326 15 12.7598 15.0527 12.8536 15.1464C12.9473 15.2402 13 15.3674 13 15.5V16.5C13 16.6326 12.9473 16.7598 12.8536 16.8536C12.7598 16.9473 12.6326 17 12.5 17H11.5C11.3674 17 11.2402 16.9473 11.1464 16.8536C11.0527 16.7598 11 16.6326 11 16.5V15.5Z" fill="white"/>
</g>
<defs>
<clipPath id="clip0_31_21">
<rect width="16" height="16" fill="white" transform="translate(5 5)"/>
</clipPath>
</defs>
</svg>
